<?xml version="1.0" encoding="utf-8"?>
<!-- Generator: Adobe Illustrator 15.0.2, SVG Export Plug-In . SVG Version: 6.00 Build 0)  -->
<!DOCTYPE svg PUBLIC "-//W3C//DTD SVG 1.1//EN" "http://www.w3.org/Graphics/SVG/1.1/DTD/svg11.dtd">
<svg version="1.1" id="Layer_1" xmlns="http://www.w3.org/2000/svg" xmlns:xlink="http://www.w3.org/1999/xlink" x="0px" y="0px"
	 width="163.773px" height="163.773px" viewBox="0 0 163.773 163.773" enable-background="new 0 0 163.773 163.773"
	 xml:space="preserve">
<g>
	<path fill="#FFFFFF" d="M0,0h77.908c-0.004,25.97,0,51.939-0.004,77.91c-25.965,0-51.935,0-77.904,0V0L0,0z"/>
	<path fill="#FFFFFF" d="M85.863,0h77.908c0,25.97,0.006,51.939-0.004,77.91c-25.965-0.006-51.935,0-77.899,0
		C85.858,51.939,85.863,25.97,85.863,0L85.863,0z"/>
	<path fill="#FFFFFF" d="M0,85.859c25.97,0.01,51.939-0.004,77.908,0.01c0.005,25.969,0,51.934,0,77.904H0V85.859L0,85.859z"/>
	<path fill="#FFFFFF" d="M85.868,85.869c25.965-0.01,51.935-0.006,77.903-0.006c0,25.971,0,51.939,0,77.91H85.863
		C85.868,137.802,85.858,111.833,85.868,85.869L85.868,85.869z"/>
</g>
</svg>
