<?xml version="1.0" encoding="utf-8"?>
<!-- Generator: Adobe Illustrator 15.0.2, SVG Export Plug-In . SVG Version: 6.00 Build 0)  -->
<!DOCTYPE svg PUBLIC "-//W3C//DTD SVG 1.1//EN" "http://www.w3.org/Graphics/SVG/1.1/DTD/svg11.dtd">
<svg version="1.1" id="Layer_1" xmlns="http://www.w3.org/2000/svg" xmlns:xlink="http://www.w3.org/1999/xlink" x="0px" y="0px"
	 width="512px" height="512px" viewBox="0 0 512 512" enable-background="new 0 0 512 512" xml:space="preserve">
<rect x="48" y="275.834" fill="#FFFFFF" width="416" height="124.666"/>
<path fill="#FFFFFF" d="M124.3,400H277c14.4,0,14.4,0.1,21.3,5.2c6.9,5.1,85.7,58.8,85.7,58.8v-64h3.7c42.2,0,76.3-31.8,76.3-71.4
	V119.7c0-39.6-34.2-71.7-76.3-71.7H124.3C82.2,48,48,80.1,48,119.7V328.6C48,368.2,82.2,400,124.3,400z M352.1,192
	c17.7,0,32,14.3,32,32s-14.3,32-32,32c-17.698,0-32-14.3-32-32S334.4,192,352.1,192z M256.1,192c17.7,0,32,14.3,32,32
	s-14.3,32-32,32c-17.7,0-32-14.3-32-32S238.4,192,256.1,192z M160.1,192c17.7,0,32,14.3,32,32s-14.3,32-32,32c-17.7,0-32-14.3-32-32
	S142.4,192,160.1,192z"/>
<rect x="48" y="48" fill="#FFFFFF" width="416" height="124.666"/>
</svg>
