<?xml version="1.0" encoding="utf-8"?>
<!-- Generator: Adobe Illustrator 15.0.2, SVG Export Plug-In . SVG Version: 6.00 Build 0)  -->
<!DOCTYPE svg PUBLIC "-//W3C//DTD SVG 1.1//EN" "http://www.w3.org/Graphics/SVG/1.1/DTD/svg11.dtd">
<svg version="1.1" id="Layer_1" xmlns="http://www.w3.org/2000/svg" xmlns:xlink="http://www.w3.org/1999/xlink" x="0px" y="0px"
	 width="512px" height="512px" viewBox="0 0 512 512" enable-background="new 0 0 512 512" xml:space="preserve">
<path fill="#FFFFFF" d="M409.3,186.4c0-1.2,0.2-2.3,0.2-3.5c0-63.5-52.9-114.9-116.801-114.9c-46.101,0-85.801,26.8-104.399,65.4
	c-8.1-4-17.1-6.3-26.8-6.3c-29.601,0-54.101,23.3-58.9,51.3c-35.2,12-60.6,43.4-60.6,82.4C42,309.9,82.1,350,131.6,350h70.5h21h35
	h16h134c45,0,81.9-37.2,81.9-82.1C490,223,454.6,186.5,409.3,186.4z"/>
</svg>
