<?xml version="1.0" encoding="utf-8"?>
<!-- Generator: Adobe Illustrator 15.0.2, SVG Export Plug-In . SVG Version: 6.00 Build 0)  -->
<!DOCTYPE svg PUBLIC "-//W3C//DTD SVG 1.1//EN" "http://www.w3.org/Graphics/SVG/1.1/DTD/svg11.dtd">
<svg version="1.1" id="Ebene_1" xmlns="http://www.w3.org/2000/svg" xmlns:xlink="http://www.w3.org/1999/xlink" x="0px" y="0px"
	 width="31.773px" height="32px" viewBox="0 0 31.773 32" enable-background="new 0 0 31.773 32" xml:space="preserve">
<g>
	<path fill="#FFFFFF" d="M28.213,24.126c-0.42,0-0.815-0.104-1.165-0.284l-14.736-9.823H8.065c-1.396,0-2.527-1.132-2.527-2.528
		c0-1.395,1.131-2.527,2.527-2.527h5.053c0.545,0,1.05,0.173,1.463,0.466l14.406,9.641h1.928h0.557
		c0.193-0.995,0.302-2.021,0.302-3.072c0-0.672-0.055-1.33-0.135-1.98h-4.337c-1.395,0-2.527-1.132-2.527-2.528
		c0-1.395,1.133-2.527,2.527-2.527h2.825c-2.604-5.305-8.045-8.965-14.353-8.965C7.817-0.001,1.236,5.812,0,13.418l8.447,5.653h4.28
		c1.395,0,2.526,1.132,2.526,2.527s-1.131,2.527-2.526,2.527H7.673c-0.42,0-0.816-0.104-1.164-0.284l-6.303-4.201
		c1.651,7.079,7.986,12.358,15.568,12.358c5.866,0,10.979-3.166,13.764-7.873H28.213z"/>
</g>
</svg>
