<?xml version="1.0" encoding="utf-8"?>
<!-- Generator: Adobe Illustrator 15.0.2, SVG Export Plug-In . SVG Version: 6.00 Build 0)  -->
<!DOCTYPE svg PUBLIC "-//W3C//DTD SVG 1.1//EN" "http://www.w3.org/Graphics/SVG/1.1/DTD/svg11.dtd">
<svg version="1.1" id="Layer_1" xmlns="http://www.w3.org/2000/svg" xmlns:xlink="http://www.w3.org/1999/xlink" x="0px" y="0px"
	 width="800px" height="600px" viewBox="0 0 800 600" enable-background="new 0 0 800 600" xml:space="preserve">
<path fill="#FFFFFF" d="M37.551,82.857C16.326,82.857,0,64.898,0,43.673C0,22.449,16.326,6.123,35.918,6.123h143.674
	c16.326,1.632,29.388,9.796,35.918,24.49l39.184,104.49h507.756c21.225,0,37.551,17.959,37.551,39.184l-1.633,14.694
	l-34.285,112.653c-4.898,16.326-17.959,26.122-32.653,27.755H324.897L342.857,380h324.897c21.225,0,37.552,16.326,37.552,37.551
	s-16.327,37.551-37.552,37.551H316.734c-11.429,0-21.225-4.897-27.755-13.061c-3.266-3.266-6.53-8.163-8.163-13.062L153.47,82.857
	H37.551L37.551,82.857z M587.755,484.49c31.021,0,55.511,24.489,53.878,53.877c0,29.388-24.49,53.878-53.878,53.878
	s-53.878-24.49-53.878-53.878S558.367,484.49,587.755,484.49L587.755,484.49z M359.184,538.367
	c0,29.388-24.489,53.878-53.877,53.878c-29.389,0-53.878-24.49-53.878-53.878s24.489-53.877,53.878-53.877
	C334.694,484.49,359.184,508.979,359.184,538.367z"/>
</svg>
