<?xml version="1.0" encoding="utf-8"?>
<!-- Generator: Adobe Illustrator 15.0.2, SVG Export Plug-In . SVG Version: 6.00 Build 0)  -->
<!DOCTYPE svg PUBLIC "-//W3C//DTD SVG 1.1//EN" "http://www.w3.org/Graphics/SVG/1.1/DTD/svg11.dtd">
<svg version="1.1" id="Ebene_1" xmlns="http://www.w3.org/2000/svg" xmlns:xlink="http://www.w3.org/1999/xlink" x="0px" y="0px"
	 width="15.931px" height="15.051px" viewBox="0 0 15.931 15.051" enable-background="new 0 0 15.931 15.051" xml:space="preserve">
<path fill="#FFFFFF" d="M2.275,15.05h11.379c1.256,0,2.276-0.84,2.276-1.875c0-1.038-1.019-1.876-2.276-1.876H2.275
	C1.018,11.299,0,12.138,0,13.175C0,14.209,1.018,15.05,2.275,15.05z M2.275,9.401h11.379c1.256,0,2.276-0.84,2.276-1.875
	c0-1.038-1.019-1.876-2.276-1.876H2.275C1.018,5.649,0,6.488,0,7.525C0,8.561,1.018,9.401,2.275,9.401z M2.275,3.753h11.379
	c1.256,0,2.276-0.84,2.276-1.876C15.931,0.839,14.913,0,13.655,0H2.275C1.018,0,0,0.839,0,1.876C0,2.912,1.018,3.753,2.275,3.753z"
	/>
</svg>
